<svg width="56" height="56" viewBox="0 0 56 56" fill="none" xmlns="http://www.w3.org/2000/svg">
<path d="M0 16C0 7.16344 7.16344 0 16 0H40C48.8366 0 56 7.16344 56 16V40C56 48.8366 48.8366 56 40 56H16C7.16344 56 0 48.8366 0 40V16Z" fill="url(#paint0_linear_221_66)"/>
<path d="M28 39.6667C34.4433 39.6667 39.6667 34.4434 39.6667 28C39.6667 21.5567 34.4433 16.3334 28 16.3334C21.5567 16.3334 16.3333 21.5567 16.3333 28C16.3333 34.4434 21.5567 39.6667 28 39.6667Z" stroke="white" stroke-width="2.33333" stroke-linecap="round" stroke-linejoin="round"/>
<path d="M28 35C31.866 35 35 31.866 35 28C35 24.134 31.866 21 28 21C24.134 21 21 24.134 21 28C21 31.866 24.134 35 28 35Z" stroke="white" stroke-width="2.33333" stroke-linecap="round" stroke-linejoin="round"/>
<path d="M28 30.3333C29.2887 30.3333 30.3333 29.2886 30.3333 28C30.3333 26.7113 29.2887 25.6666 28 25.6666C26.7113 25.6666 25.6667 26.7113 25.6667 28C25.6667 29.2886 26.7113 30.3333 28 30.3333Z" stroke="white" stroke-width="2.33333" stroke-linecap="round" stroke-linejoin="round"/>
<defs>
<linearGradient id="paint0_linear_221_66" x1="1.17347e-07" y1="56" x2="56" y2="1.17347e-07" gradientUnits="userSpaceOnUse">
<stop stop-color="#FB8500"/>
<stop offset="1" stop-color="#FFB703"/>
</linearGradient>
</defs>
</svg>
