<svg width="39" height="40" viewBox="0 0 39 40" fill="none" xmlns="http://www.w3.org/2000/svg">
<path d="M0 19.5C0 8.73045 8.73045 0 19.5 0C30.2696 0 39 8.73045 39 19.5V20.5C39 31.2696 30.2696 40 19.5 40C8.73045 40 0 31.2696 0 20.5V19.5Z" fill="white" fill-opacity="0.1"/>
<path d="M23.6666 11.6665H15.3333C13.0321 11.6665 11.1666 13.532 11.1666 15.8332V24.1665C11.1666 26.4677 13.0321 28.3332 15.3333 28.3332H23.6666C25.9678 28.3332 27.8333 26.4677 27.8333 24.1665V15.8332C27.8333 13.532 25.9678 11.6665 23.6666 11.6665Z" stroke="white" stroke-width="1.66667" stroke-linecap="round" stroke-linejoin="round"/>
<path d="M22.8334 19.4748C22.9362 20.1683 22.8178 20.8766 22.4948 21.4989C22.1719 22.1213 21.661 22.6259 21.0347 22.9412C20.4085 23.2564 19.6987 23.3661 19.0065 23.2547C18.3143 23.1433 17.6748 22.8165 17.1791 22.3207C16.6833 21.825 16.3565 21.1855 16.2451 20.4933C16.1337 19.8011 16.2434 19.0913 16.5586 18.4651C16.8739 17.8388 17.3785 17.3279 18.0009 17.005C18.6232 16.682 19.3315 16.5636 20.025 16.6664C20.7325 16.7713 21.3874 17.101 21.8931 17.6067C22.3988 18.1124 22.7285 18.7673 22.8334 19.4748Z" stroke="white" stroke-width="1.66667" stroke-linecap="round" stroke-linejoin="round"/>
<path d="M24.0834 15.4165H24.0917" stroke="white" stroke-width="1.66667" stroke-linecap="round" stroke-linejoin="round"/>
</svg>
