<svg width="39" height="40" viewBox="0 0 39 40" fill="none" xmlns="http://www.w3.org/2000/svg">
<path d="M0 19.5C0 8.73045 8.73045 0 19.5 0C30.2696 0 39 8.73045 39 19.5V20.5C39 31.2696 30.2696 40 19.5 40C8.73045 40 0 31.2696 0 20.5V19.5Z" fill="white" fill-opacity="0.1"/>
<path d="M24.5 11.6665H22C20.895 11.6665 19.8352 12.1055 19.0538 12.8869C18.2724 13.6683 17.8334 14.7281 17.8334 15.8332V18.3332H15.3334V21.6665H17.8334V28.3332H21.1667V21.6665H23.6667L24.5 18.3332H21.1667V15.8332C21.1667 15.6122 21.2545 15.4002 21.4108 15.2439C21.5671 15.0876 21.779 14.9998 22 14.9998H24.5V11.6665Z" stroke="white" stroke-width="1.66667" stroke-linecap="round" stroke-linejoin="round"/>
</svg>
