<svg width="56" height="56" viewBox="0 0 56 56" fill="none" xmlns="http://www.w3.org/2000/svg">
<path d="M0 16C0 7.16344 7.16344 0 16 0H40C48.8366 0 56 7.16344 56 16V40C56 48.8366 48.8366 56 40 56H16C7.16344 56 0 48.8366 0 40V16Z" fill="url(#paint0_linear_221_90)"/>
<path d="M25.5931 32.0833C25.489 31.6795 25.2785 31.3111 24.9837 31.0162C24.6888 30.7214 24.3204 30.511 23.9166 30.4068L16.7591 28.5611C16.637 28.5265 16.5295 28.4529 16.453 28.3517C16.3765 28.2504 16.3351 28.1269 16.3351 28C16.3351 27.873 16.3765 27.7496 16.453 27.6483C16.5295 27.547 16.637 27.4735 16.7591 27.4388L23.9166 25.592C24.3202 25.4879 24.6886 25.2776 24.9834 24.983C25.2783 24.6884 25.4888 24.3202 25.5931 23.9166L27.4388 16.7591C27.4731 16.6365 27.5466 16.5285 27.648 16.4516C27.7494 16.3747 27.8732 16.333 28.0006 16.333C28.1279 16.333 28.2517 16.3747 28.3531 16.4516C28.4545 16.5285 28.528 16.6365 28.5623 16.7591L30.4068 23.9166C30.511 24.3204 30.7214 24.6888 31.0162 24.9837C31.3111 25.2785 31.6796 25.489 32.0833 25.5931L39.2408 27.4376C39.3639 27.4716 39.4724 27.545 39.5498 27.6466C39.6271 27.7481 39.669 27.8723 39.669 28C39.669 28.1276 39.6271 28.2518 39.5498 28.3534C39.4724 28.455 39.3639 28.5283 39.2408 28.5623L32.0833 30.4068C31.6796 30.511 31.3111 30.7214 31.0162 31.0162C30.7214 31.3111 30.511 31.6795 30.4068 32.0833L28.5611 39.2408C28.5268 39.3634 28.4534 39.4714 28.3519 39.5483C28.2505 39.6253 28.1267 39.6669 27.9994 39.6669C27.8721 39.6669 27.7483 39.6253 27.6468 39.5483C27.5454 39.4714 27.4719 39.3634 27.4376 39.2408L25.5931 32.0833Z" stroke="white" stroke-width="2.33333" stroke-linecap="round" stroke-linejoin="round"/>
<path d="M37.3334 17.5V22.1667" stroke="white" stroke-width="2.33333" stroke-linecap="round" stroke-linejoin="round"/>
<path d="M39.6667 19.8334H35" stroke="white" stroke-width="2.33333" stroke-linecap="round" stroke-linejoin="round"/>
<path d="M18.6666 33.8334V36.1667" stroke="white" stroke-width="2.33333" stroke-linecap="round" stroke-linejoin="round"/>
<path d="M19.8333 35H17.5" stroke="white" stroke-width="2.33333" stroke-linecap="round" stroke-linejoin="round"/>
<defs>
<linearGradient id="paint0_linear_221_90" x1="1.17347e-07" y1="56" x2="56" y2="1.17347e-07" gradientUnits="userSpaceOnUse">
<stop stop-color="#FB8500"/>
<stop offset="1" stop-color="#FFB703"/>
</linearGradient>
</defs>
</svg>
