<svg width="64" height="64" viewBox="0 0 64 64" fill="none" xmlns="http://www.w3.org/2000/svg">
<path d="M0 16C0 7.16344 7.16344 0 16 0H48C56.8366 0 64 7.16344 64 16V48C64 56.8366 56.8366 64 48 64H16C7.16344 64 0 56.8366 0 48V16Z" fill="url(#paint0_linear_222_381)"/>
<path d="M32 25.3333V43.9999" stroke="white" stroke-width="2.66667" stroke-linecap="round" stroke-linejoin="round"/>
<path d="M20 40C19.6464 40 19.3073 39.8595 19.0572 39.6095C18.8072 39.3594 18.6667 39.0203 18.6667 38.6667V21.3333C18.6667 20.9797 18.8072 20.6406 19.0572 20.3905C19.3073 20.1405 19.6464 20 20 20H26.6667C28.0812 20 29.4377 20.5619 30.4379 21.5621C31.4381 22.5623 32 23.9188 32 25.3333C32 23.9188 32.5619 22.5623 33.5621 21.5621C34.5623 20.5619 35.9189 20 37.3334 20H44C44.3536 20 44.6928 20.1405 44.9428 20.3905C45.1929 20.6406 45.3334 20.9797 45.3334 21.3333V38.6667C45.3334 39.0203 45.1929 39.3594 44.9428 39.6095C44.6928 39.8595 44.3536 40 44 40H36C34.9392 40 33.9217 40.4214 33.1716 41.1716C32.4214 41.9217 32 42.9391 32 44C32 42.9391 31.5786 41.9217 30.8284 41.1716C30.0783 40.4214 29.0609 40 28 40H20Z" stroke="white" stroke-width="2.66667" stroke-linecap="round" stroke-linejoin="round"/>
<defs>
<linearGradient id="paint0_linear_222_381" x1="1.3411e-07" y1="64" x2="64" y2="1.3411e-07" gradientUnits="userSpaceOnUse">
<stop stop-color="#8ECAE6"/>
<stop offset="1" stop-color="#219EBC"/>
</linearGradient>
</defs>
</svg>
