<svg width="64" height="64" viewBox="0 0 64 64" fill="none" xmlns="http://www.w3.org/2000/svg">
<path d="M0 16C0 7.16344 7.16344 0 16 0H48C56.8366 0 64 7.16344 64 16V48C64 56.8366 56.8366 64 48 64H16C7.16344 64 0 56.8366 0 48V16Z" fill="url(#paint0_linear_222_374)"/>
<path d="M30.6667 38.6666L33.3334 41.3333C33.596 41.5959 33.9078 41.8042 34.251 41.9464C34.5941 42.0885 34.9619 42.1617 35.3334 42.1617C35.7048 42.1617 36.0726 42.0885 36.4157 41.9464C36.7589 41.8042 37.0707 41.5959 37.3334 41.3333C37.596 41.0706 37.8043 40.7588 37.9465 40.4156C38.0886 40.0725 38.1618 39.7047 38.1618 39.3333C38.1618 38.9618 38.0886 38.594 37.9465 38.2509C37.8043 37.9077 37.596 37.5959 37.3334 37.3333" stroke="white" stroke-width="2.66667" stroke-linecap="round" stroke-linejoin="round"/>
<path d="M34.6667 34.6666L38 37.9999C38.5304 38.5304 39.2499 38.8284 40 38.8284C40.7501 38.8284 41.4696 38.5304 42 37.9999C42.5304 37.4695 42.8284 36.7501 42.8284 35.9999C42.8284 35.2498 42.5304 34.5304 42 33.9999L36.8267 28.8266C36.0767 28.0775 35.06 27.6568 34 27.6568C32.94 27.6568 31.9233 28.0775 31.1733 28.8266L30 29.9999C29.4696 30.5304 28.7501 30.8284 28 30.8284C27.2499 30.8284 26.5304 30.5304 26 29.9999C25.4696 29.4695 25.1716 28.7501 25.1716 27.9999C25.1716 27.2498 25.4696 26.5304 26 25.9999L29.7467 22.2533C30.963 21.0401 32.5492 20.2673 34.2542 20.0572C35.9592 19.8471 37.6855 20.2117 39.16 21.0933L39.7867 21.4666C40.3544 21.8093 41.0294 21.9281 41.68 21.7999L44 21.3333" stroke="white" stroke-width="2.66667" stroke-linecap="round" stroke-linejoin="round"/>
<path d="M44 20L45.3334 34.6667H42.6667" stroke="white" stroke-width="2.66667" stroke-linecap="round" stroke-linejoin="round"/>
<path d="M20 20L18.6667 34.6667L27.3334 43.3333C27.8638 43.8638 28.5832 44.1618 29.3334 44.1618C30.0835 44.1618 30.8029 43.8638 31.3334 43.3333C31.8638 42.8029 32.1618 42.0835 32.1618 41.3333C32.1618 40.5832 31.8638 39.8638 31.3334 39.3333" stroke="white" stroke-width="2.66667" stroke-linecap="round" stroke-linejoin="round"/>
<path d="M20 21.3333H30.6667" stroke="white" stroke-width="2.66667" stroke-linecap="round" stroke-linejoin="round"/>
<defs>
<linearGradient id="paint0_linear_222_374" x1="1.3411e-07" y1="64" x2="64" y2="1.3411e-07" gradientUnits="userSpaceOnUse">
<stop stop-color="#FB8500"/>
<stop offset="1" stop-color="#FFB703"/>
</linearGradient>
</defs>
</svg>
