<svg width="50" height="50" viewBox="0 0 50 50" fill="none" xmlns="http://www.w3.org/2000/svg">
<g filter="url(#filter0_dd_580_3735)">
<path d="M5 11C5 5.47715 9.47715 1 15 1H35C40.5228 1 45 5.47715 45 11V31C45 36.5228 40.5228 41 35 41H15C9.47715 41 5 36.5228 5 31V11Z" fill="url(#paint0_linear_580_3735)" shape-rendering="crispEdges"/>
<path d="M21.667 12.666V15.9993" stroke="white" stroke-width="1.66667" stroke-linecap="round" stroke-linejoin="round"/>
<path d="M28.333 12.666V15.9993" stroke="white" stroke-width="1.66667" stroke-linecap="round" stroke-linejoin="round"/>
<path d="M30.8333 14.333H19.1667C18.2462 14.333 17.5 15.0792 17.5 15.9997V27.6663C17.5 28.5868 18.2462 29.333 19.1667 29.333H30.8333C31.7538 29.333 32.5 28.5868 32.5 27.6663V15.9997C32.5 15.0792 31.7538 14.333 30.8333 14.333Z" stroke="white" stroke-width="1.66667" stroke-linecap="round" stroke-linejoin="round"/>
<path d="M17.5 19.333H32.5" stroke="white" stroke-width="1.66667" stroke-linecap="round" stroke-linejoin="round"/>
</g>
<defs>
<filter id="filter0_dd_580_3735" x="0" y="0" width="50" height="50" filterUnits="userSpaceOnUse" color-interpolation-filters="sRGB">
<feFlood flood-opacity="0" result="BackgroundImageFix"/>
<feColorMatrix in="SourceAlpha" type="matrix" values="0 0 0 0 0 0 0 0 0 0 0 0 0 0 0 0 0 0 127 0" result="hardAlpha"/>
<feMorphology radius="2" operator="erode" in="SourceAlpha" result="effect1_dropShadow_580_3735"/>
<feOffset dy="2"/>
<feGaussianBlur stdDeviation="2"/>
<feComposite in2="hardAlpha" operator="out"/>
<feColorMatrix type="matrix" values="0 0 0 0 0 0 0 0 0 0 0 0 0 0 0 0 0 0 0.1 0"/>
<feBlend mode="normal" in2="BackgroundImageFix" result="effect1_dropShadow_580_3735"/>
<feColorMatrix in="SourceAlpha" type="matrix" values="0 0 0 0 0 0 0 0 0 0 0 0 0 0 0 0 0 0 127 0" result="hardAlpha"/>
<feMorphology radius="1" operator="erode" in="SourceAlpha" result="effect2_dropShadow_580_3735"/>
<feOffset dy="4"/>
<feGaussianBlur stdDeviation="3"/>
<feComposite in2="hardAlpha" operator="out"/>
<feColorMatrix type="matrix" values="0 0 0 0 0 0 0 0 0 0 0 0 0 0 0 0 0 0 0.1 0"/>
<feBlend mode="normal" in2="effect1_dropShadow_580_3735" result="effect2_dropShadow_580_3735"/>
<feBlend mode="normal" in="SourceGraphic" in2="effect2_dropShadow_580_3735" result="shape"/>
</filter>
<linearGradient id="paint0_linear_580_3735" x1="5" y1="1" x2="45" y2="41" gradientUnits="userSpaceOnUse">
<stop stop-color="#FB8500"/>
<stop offset="0.0714286" stop-color="#FB8900"/>
<stop offset="0.142857" stop-color="#FC8C00"/>
<stop offset="0.214286" stop-color="#FC9001"/>
<stop offset="0.285714" stop-color="#FD9401"/>
<stop offset="0.357143" stop-color="#FD9701"/>
<stop offset="0.428571" stop-color="#FD9B01"/>
<stop offset="0.5" stop-color="#FE9E01"/>
<stop offset="0.571429" stop-color="#FEA202"/>
<stop offset="0.642857" stop-color="#FEA602"/>
<stop offset="0.714286" stop-color="#FEA902"/>
<stop offset="0.785714" stop-color="#FFAD02"/>
<stop offset="0.857143" stop-color="#FFB002"/>
<stop offset="0.928571" stop-color="#FFB403"/>
<stop offset="1" stop-color="#FFB703"/>
</linearGradient>
</defs>
</svg>
