<svg width="50" height="50" viewBox="0 0 50 50" fill="none" xmlns="http://www.w3.org/2000/svg">
<g filter="url(#filter0_dd_580_3708)">
<path d="M5 11C5 5.47715 9.47715 1 15 1H35C40.5228 1 45 5.47715 45 11V31C45 36.5228 40.5228 41 35 41H15C9.47715 41 5 36.5228 5 31V11Z" fill="url(#paint0_linear_580_3708)" shape-rendering="crispEdges"/>
<path d="M31.667 13.5H18.3337C17.4132 13.5 16.667 14.2462 16.667 15.1667V23.5C16.667 24.4205 17.4132 25.1667 18.3337 25.1667H31.667C32.5875 25.1667 33.3337 24.4205 33.3337 23.5V15.1667C33.3337 14.2462 32.5875 13.5 31.667 13.5Z" stroke="white" stroke-width="1.66667" stroke-linecap="round" stroke-linejoin="round"/>
<path d="M21.667 28.5H28.3337" stroke="white" stroke-width="1.66667" stroke-linecap="round" stroke-linejoin="round"/>
<path d="M25 25.167V28.5003" stroke="white" stroke-width="1.66667" stroke-linecap="round" stroke-linejoin="round"/>
</g>
<defs>
<filter id="filter0_dd_580_3708" x="0" y="0" width="50" height="50" filterUnits="userSpaceOnUse" color-interpolation-filters="sRGB">
<feFlood flood-opacity="0" result="BackgroundImageFix"/>
<feColorMatrix in="SourceAlpha" type="matrix" values="0 0 0 0 0 0 0 0 0 0 0 0 0 0 0 0 0 0 127 0" result="hardAlpha"/>
<feMorphology radius="2" operator="erode" in="SourceAlpha" result="effect1_dropShadow_580_3708"/>
<feOffset dy="2"/>
<feGaussianBlur stdDeviation="2"/>
<feComposite in2="hardAlpha" operator="out"/>
<feColorMatrix type="matrix" values="0 0 0 0 0 0 0 0 0 0 0 0 0 0 0 0 0 0 0.1 0"/>
<feBlend mode="normal" in2="BackgroundImageFix" result="effect1_dropShadow_580_3708"/>
<feColorMatrix in="SourceAlpha" type="matrix" values="0 0 0 0 0 0 0 0 0 0 0 0 0 0 0 0 0 0 127 0" result="hardAlpha"/>
<feMorphology radius="1" operator="erode" in="SourceAlpha" result="effect2_dropShadow_580_3708"/>
<feOffset dy="4"/>
<feGaussianBlur stdDeviation="3"/>
<feComposite in2="hardAlpha" operator="out"/>
<feColorMatrix type="matrix" values="0 0 0 0 0 0 0 0 0 0 0 0 0 0 0 0 0 0 0.1 0"/>
<feBlend mode="normal" in2="effect1_dropShadow_580_3708" result="effect2_dropShadow_580_3708"/>
<feBlend mode="normal" in="SourceGraphic" in2="effect2_dropShadow_580_3708" result="shape"/>
</filter>
<linearGradient id="paint0_linear_580_3708" x1="5" y1="1" x2="45" y2="41" gradientUnits="userSpaceOnUse">
<stop stop-color="#FB8500"/>
<stop offset="0.0714286" stop-color="#FB8900"/>
<stop offset="0.142857" stop-color="#FC8C00"/>
<stop offset="0.214286" stop-color="#FC9001"/>
<stop offset="0.285714" stop-color="#FD9401"/>
<stop offset="0.357143" stop-color="#FD9701"/>
<stop offset="0.428571" stop-color="#FD9B01"/>
<stop offset="0.5" stop-color="#FE9E01"/>
<stop offset="0.571429" stop-color="#FEA202"/>
<stop offset="0.642857" stop-color="#FEA602"/>
<stop offset="0.714286" stop-color="#FEA902"/>
<stop offset="0.785714" stop-color="#FFAD02"/>
<stop offset="0.857143" stop-color="#FFB002"/>
<stop offset="0.928571" stop-color="#FFB403"/>
<stop offset="1" stop-color="#FFB703"/>
</linearGradient>
</defs>
</svg>
