<svg width="157" height="60" viewBox="0 0 157 60" fill="none" xmlns="http://www.w3.org/2000/svg">
<g clip-path="url(#clip0_223_1052)">
<mask id="mask0_223_1052" style="mask-type:luminance" maskUnits="userSpaceOnUse" x="0" y="0" width="157" height="60">
<path d="M156.605 0H0V60H156.605V0Z" fill="white"/>
</mask>
<g mask="url(#mask0_223_1052)">
<path d="M76.9338 24.0343C76.3846 23.7412 75.9268 23.303 75.6103 22.7678C75.2932 22.2119 75.1267 21.5835 75.1267 20.9442C75.1267 20.3048 75.2932 19.6764 75.6103 19.1205C75.9287 18.5855 76.3878 18.1475 76.9382 17.854C77.5195 17.5446 78.1702 17.3871 78.8291 17.3964C79.36 17.3903 79.8865 17.4907 80.3777 17.6918C80.8342 17.8815 81.2396 18.1751 81.5624 18.5491L80.732 19.3214C80.5006 19.0621 80.2156 18.8558 79.8966 18.7165C79.5782 18.5772 79.2333 18.5082 78.8853 18.5143C78.4426 18.5095 78.0069 18.6186 77.6192 18.831C77.2509 19.0305 76.9458 19.3288 76.7383 19.692C76.5303 20.0778 76.4218 20.509 76.4218 20.9471C76.4218 21.3851 76.5303 21.8163 76.7383 22.2021C76.9458 22.5654 77.2509 22.8636 77.6192 23.0632C78.0101 23.2739 78.4489 23.381 78.8928 23.374C79.2421 23.3796 79.5877 23.3094 79.9067 23.168C80.2257 23.0266 80.5101 22.8175 80.7396 22.5554L81.57 23.345C81.2459 23.72 80.838 24.0137 80.3796 24.2023C79.8884 24.4027 79.3619 24.5032 78.831 24.4977C78.1696 24.5062 77.5164 24.3467 76.9338 24.0343Z" fill="white"/>
<path d="M87.5007 22.7965H84.0417L83.3601 24.3932H82.0366L85.1489 17.4946H86.4131L89.5348 24.3932H88.1918L87.5007 22.7965ZM87.0751 21.7906L85.7699 18.7767L84.4773 21.7906H87.0751Z" fill="white"/>
<path d="M95.828 17.4946V24.3932H94.5638V22.4624H92.717L91.4339 24.3932H90.0789L91.5594 22.2694C91.1086 22.1146 90.7189 21.8195 90.4484 21.4276C90.1811 21.0126 90.0461 20.5266 90.0613 20.0336C90.0505 19.5589 90.1735 19.0908 90.4156 18.6821C90.6577 18.2982 91.0089 17.995 91.4245 17.8113C91.9062 17.6007 92.4289 17.4978 92.9554 17.5101L95.828 17.4946ZM91.782 18.9427C91.5121 19.2298 91.3601 19.6081 91.3576 20.0019C91.3551 20.3958 91.502 20.776 91.7687 21.0665C92.0991 21.3346 92.519 21.4671 92.9434 21.4372H94.5638V18.5797H92.9919C92.4654 18.5797 92.0632 18.6994 91.782 18.9427Z" fill="white"/>
<path d="M99.3602 24.0343C98.811 23.7412 98.3526 23.303 98.0361 22.7678C97.7202 22.2116 97.5544 21.5834 97.5544 20.9442C97.5544 20.305 97.7202 19.6767 98.0361 19.1205C98.3564 18.5858 98.8161 18.148 99.3659 17.854C99.9478 17.5446 100.598 17.3871 101.257 17.3964C101.788 17.3903 102.315 17.4907 102.806 17.6918C103.262 17.8815 103.668 18.1751 103.99 18.5491L103.16 19.3214C102.928 19.0621 102.644 18.8558 102.325 18.7165C102.006 18.5772 101.661 18.5082 101.314 18.5143C100.869 18.5064 100.43 18.6134 100.04 18.8251C99.6717 19.0247 99.3665 19.323 99.1591 19.6863C98.951 20.072 98.8419 20.5032 98.8419 20.9412C98.8419 21.3793 98.951 21.8105 99.1591 22.1963C99.3665 22.5595 99.6717 22.8578 100.04 23.0574C100.43 23.2682 100.869 23.3752 101.314 23.3682C101.662 23.3739 102.008 23.3035 102.327 23.1622C102.646 23.0208 102.93 22.8117 103.16 22.5496L103.99 23.3392C103.667 23.7143 103.259 24.0079 102.8 24.1965C102.309 24.3969 101.782 24.4974 101.251 24.4919C100.592 24.5015 99.9415 24.344 99.3602 24.0343Z" fill="white"/>
<path d="M105.493 17.4946H106.756V22.3968L110.471 17.4985H111.667V24.3971H110.403V19.5007L106.687 24.3893H105.493V17.4946Z" fill="white"/>
<path d="M81.9975 38.005L81.988 33.4311L79.7156 37.2153H79.1349L76.8625 33.4909V38.005H75.6469V31.1064H76.7036L79.4407 35.6688L82.1507 31.1064H83.198L83.2188 38.005H81.9975Z" fill="white"/>
<path d="M90.642 36.9296V38.005H85.4547V31.1064H90.5026V32.1799H86.7378V33.9813H90.0789V35.0355H86.7378V36.9373L90.642 36.9296Z" fill="white"/>
<path d="M98.5241 31.1064V38.005H97.241V35.0471H93.654V38.005H92.3708V31.1064H93.654V33.9543H97.2309V31.1064H98.5241Z" fill="white"/>
<path d="M105.934 36.9296V38.005H100.748V31.1064H105.797V32.1799H102.032V33.9813H105.372V35.0355H102.032V36.9373L105.934 36.9296Z" fill="white"/>
<path d="M114.52 36.9199V39.4724H113.334V38.0049H108.03V39.4724H106.834L106.843 36.9199H107.14C107.576 36.9006 107.88 36.5788 108.053 35.9545C108.261 35.0806 108.368 34.1862 108.375 33.2881L108.454 31.1006H113.522V36.9141L114.52 36.9199ZM109.294 35.6437C109.182 36.2384 109.003 36.6637 108.76 36.9199H112.267V32.1896H109.557L109.509 33.4117C109.488 34.1601 109.413 34.906 109.285 35.6437H109.294Z" fill="white"/>
<path d="M122.067 35.0973H120.883V38.005H119.623V35.0973H118.442L116.7 38.005H115.217L117.391 34.408L115.364 31.1064H116.719L118.409 33.9929H119.623V31.1064H120.879V33.9929H122.073L123.773 31.1064H125.128L123.113 34.4177L125.277 38.005H123.794L122.067 35.0973Z" fill="white"/>
<path d="M132.835 38.005V33.4311L130.563 37.2153H129.982L127.71 33.4909V38.005H126.494V31.1064H127.559L130.296 35.6688L133.005 31.1064H134.053L134.072 38.005H132.835Z" fill="white"/>
<path d="M141.48 36.9296V38.005H136.294V31.1064H141.342V32.1799H137.577V33.9813H140.915V35.0355H137.577V36.9373L141.48 36.9296Z" fill="white"/>
<path d="M149.354 31.1064V38.005H148.077V35.0471H144.494V38.005H143.21V31.1064H144.494V33.9543H148.077V31.1064H149.354Z" fill="white"/>
<path d="M156.605 32.1896H154.313V38.005H153.04V32.1896H150.757V31.1064H156.605V32.1896Z" fill="white"/>
<path d="M80.2283 50.0182H76.7717L76.0901 51.6149H74.7661L77.8764 44.7183H79.1425L82.2648 51.6149H80.9212L80.2283 50.0182ZM79.8046 49.0142L78.5 45.9983L77.2049 49.0142H79.8046Z" fill="white"/>
<path d="M86.1653 48.7091H84.8815V51.6052H83.6198V44.7183H84.884V47.6048H86.2075L88.1936 44.7183H89.5486L87.1873 48.0585L89.6375 51.6149H88.1861L86.1653 48.7091Z" fill="white"/>
<path d="M95.2839 50.0182H91.8267L91.1451 51.6149H89.8134L92.9263 44.7183H94.1899L97.3122 51.6149H95.9692L95.2839 50.0182ZM94.8602 49.0142L93.555 45.9983L92.2624 49.0142H94.8602Z" fill="white"/>
<path d="M105.58 50.5317V53.0842H104.393V51.6149H99.0872V53.0842H97.893L97.9031 50.5317H98.1988C98.6351 50.5124 98.9396 50.1906 99.1124 49.5663C99.3205 48.6931 99.4277 47.7993 99.434 46.9019L99.5134 44.7144H104.581V50.5278L105.58 50.5317ZM100.344 49.2555C100.232 49.8502 100.053 50.2755 99.8098 50.5317H103.317V45.8014H100.607L100.559 47.0235C100.541 47.7717 100.469 48.5175 100.344 49.2555Z" fill="white"/>
<path d="M112.267 50.5414V51.6149H107.08V44.7183H112.128V45.7918H108.365V47.5854H111.704V48.6396H108.365V50.5414H112.267Z" fill="white"/>
<path d="M120.348 51.6149V47.0429L118.074 50.8271H117.493L115.221 47.1105V51.6226H114.009V44.7183H115.066L117.803 49.2807L120.513 44.7183H121.558L121.577 51.6149H120.348Z" fill="white"/>
<path d="M123.815 44.7183H125.081V49.6204L128.795 44.7241H129.99V51.6207H128.72V46.7243L125.005 51.6111H123.809L123.815 44.7183Z" fill="white"/>
<path d="M137.508 44.7183V51.6149H136.244V49.6938H134.397L133.112 51.6149H131.757L133.24 49.4911C132.788 49.3364 132.398 49.0414 132.127 48.6493C131.859 48.2336 131.724 47.747 131.739 47.2534C131.727 46.7783 131.851 46.3096 132.096 45.9018C132.337 45.5175 132.687 45.2135 133.103 45.0291C133.585 44.8194 134.107 44.7172 134.633 44.7299L137.508 44.7183ZM133.463 46.1663C133.196 46.4535 133.047 46.8296 133.045 47.2208C133.042 47.612 133.186 47.99 133.449 48.2805C133.779 48.5487 134.199 48.6826 134.624 48.6551H136.244V45.8014H134.674C134.239 45.772 133.808 45.9018 133.463 46.1663Z" fill="white"/>
<path d="M141.041 51.2556C140.49 50.963 140.033 50.5248 139.717 49.989C139.401 49.433 139.236 48.8051 139.236 48.1664C139.236 47.5276 139.401 46.8997 139.717 46.3437C140.035 45.8082 140.494 45.3701 141.045 45.0771C141.627 44.7675 142.278 44.61 142.937 44.6195C143.468 44.6133 143.995 44.7138 144.486 44.9149C144.943 45.1042 145.349 45.3978 145.671 45.7722L144.842 46.5445C144.61 46.2851 144.325 46.0785 144.006 45.9389C143.687 45.7993 143.342 45.7299 142.994 45.7355C142.549 45.7285 142.111 45.8356 141.72 46.0464C141.351 46.2456 141.047 46.5448 140.841 46.9094C140.632 47.2947 140.521 47.726 140.521 48.1644C140.521 48.6028 140.632 49.0342 140.841 49.4194C141.047 49.784 141.351 50.0832 141.72 50.2825C142.111 50.4932 142.549 50.6003 142.994 50.5933C143.343 50.5983 143.689 50.5278 144.008 50.3864C144.327 50.2451 144.611 50.0363 144.842 49.7747L145.671 50.5624C145.347 50.9382 144.939 51.2321 144.48 51.4196C143.989 51.6202 143.463 51.7206 142.932 51.7151C142.272 51.7237 141.622 51.5656 141.041 51.2556Z" fill="white"/>
<path d="M152.273 47.6105C152.718 47.9813 152.941 48.5315 152.941 49.2613C152.941 50.022 152.697 50.6045 152.209 51.0087C151.721 51.4128 151.036 51.6149 150.153 51.6149H147.18V44.7183H148.444V47.0525H150.362C151.191 47.0525 151.83 47.2379 152.273 47.6105ZM151.251 50.2846C151.39 50.1582 151.498 50.0024 151.568 49.8286C151.638 49.6548 151.668 49.4675 151.656 49.2807C151.656 48.4465 151.136 48.0295 150.095 48.0295H148.444V50.6302H150.095C150.509 50.656 150.919 50.5335 151.251 50.2846ZM153.938 44.7183H155.204V51.6149H153.938V44.7183Z" fill="white"/>
<path d="M56.7685 28.3223L49.2776 46.2609C49.2226 46.3893 49.1361 46.5019 49.0262 46.5882C48.9161 46.6746 48.7862 46.7319 48.6481 46.755C48.5101 46.7781 48.3684 46.7661 48.2363 46.7203C48.104 46.6744 47.9855 46.5961 47.8916 46.4926L31.369 3.03336C31.2595 2.73842 31.1125 2.45875 30.9315 2.20121C30.7321 1.73783 29.8185 0.0851077 26.9054 0.000154875C23.6052 -0.0925214 22.5347 2.32671 22.5347 2.32671L3.71448 47.2727C3.50946 47.7618 3.42876 48.2939 3.47955 48.8217C3.53035 49.3494 3.71106 49.8565 4.00563 50.2979C4.30021 50.7391 4.69953 51.101 5.1681 51.3514C5.63666 51.6017 6.15996 51.7327 6.69147 51.7327C7.32949 51.7346 7.95377 51.5478 8.48543 51.1958C9.01702 50.844 9.4321 50.3428 9.67819 49.7556L28.2604 5.4719C28.3148 5.34756 28.3991 5.23848 28.5057 5.15424C28.6123 5.06999 28.7381 5.01317 28.8719 4.98876C29.0057 4.96435 29.1435 4.97311 29.2731 5.01426C29.4027 5.05541 29.5202 5.1277 29.6153 5.22476L46.5463 49.4389C46.5703 49.4983 46.5975 49.5563 46.6277 49.6127C46.6451 49.6455 46.6606 49.6783 46.678 49.7092C47.0031 50.3213 48.0039 51.6554 50.6228 51.7307C53.9231 51.8253 54.9915 49.4138 54.9915 49.4138L60.0242 37.2772L56.7685 28.3223Z" fill="white"/>
<path d="M56.6001 28.7162L49.2447 46.2512C49.1899 46.3801 49.1034 46.4929 48.9933 46.5796C48.8831 46.6662 48.7528 46.7237 48.6145 46.7468C48.4762 46.7699 48.3342 46.7578 48.2018 46.7117C48.0694 46.6656 47.9508 46.5869 47.8569 46.4829L41.1015 28.6602L39.8084 31.8575L46.5155 49.4273C46.5387 49.4872 46.5677 49.5451 46.5968 49.603L46.6471 49.7015C46.9722 50.3135 47.975 51.6496 50.5977 51.7249C53.9038 51.8195 54.9742 49.3964 54.9742 49.3964L59.8656 37.6729L56.6001 28.7162Z" fill="white"/>
<path d="M50.3268 10.1117C50.3074 10.0595 50.2822 10.0113 50.259 9.96303C50.2455 9.93599 50.2319 9.90701 50.2164 9.88193C49.9745 9.42435 49.2796 8.48791 47.5859 8.24077C47.3577 8.20629 47.1275 8.18564 46.8968 8.17901C44.1191 8.09987 43.2191 10.1368 43.2191 10.1368L27.6294 47.3037C27.566 47.378 27.4876 47.4382 27.3993 47.4803C27.3111 47.5225 27.215 47.5456 27.1171 47.5484C27.0193 47.5511 26.922 47.5333 26.8315 47.4962C26.7411 47.459 26.6595 47.4033 26.5919 47.3327L19.0294 27.417L17.928 30.0544L25.1131 49.1689C25.2064 49.4166 25.3299 49.652 25.4809 49.8697C25.6512 50.2559 26.4197 51.6498 28.8741 51.7194C31.6537 51.7985 32.5518 49.7635 32.5518 49.7635L32.695 49.4198H32.7376L47.5878 13.838L48.0291 12.7838C48.076 12.677 48.1489 12.5835 48.2411 12.5118C48.3334 12.4401 48.4421 12.3926 48.5574 12.3734C48.6727 12.3542 48.7911 12.364 48.9016 12.402C49.0122 12.44 49.1115 12.5049 49.1906 12.5908L63.8586 51.1652C63.9318 51.3561 64.061 51.5202 64.23 51.6358C64.3984 51.7513 64.5989 51.8128 64.8032 51.812C64.9652 51.811 65.1241 51.7711 65.2666 51.6957C65.4097 51.6203 65.532 51.5117 65.6235 51.3791C65.7155 51.2464 65.7735 51.0937 65.7937 50.9338C65.8139 50.7739 65.795 50.6115 65.7382 50.4605L50.3268 10.1117Z" fill="white"/>
<path d="M3.20736 60.0001C4.97873 60.0001 6.41474 58.5677 6.41474 56.8008C6.41474 55.0339 4.97873 53.6016 3.20736 53.6016C1.43598 53.6016 0 55.0339 0 56.8008C0 58.5677 1.43598 60.0001 3.20736 60.0001Z" fill="white"/>
</g>
</g>
<defs>
<clipPath id="clip0_223_1052">
<rect width="157" height="60" fill="white"/>
</clipPath>
</defs>
</svg>
