<svg width="209" height="80" viewBox="0 0 209 80" fill="none" xmlns="http://www.w3.org/2000/svg">
<g clip-path="url(#clip0_220_5)">
<mask id="mask0_220_5" style="mask-type:luminance" maskUnits="userSpaceOnUse" x="0" y="0" width="209" height="80">
<path d="M208.474 0H0V80H208.474V0Z" fill="white"/>
</mask>
<g mask="url(#mask0_220_5)">
<path d="M102.415 32.0454C101.684 31.6546 101.075 31.0703 100.653 30.3566C100.231 29.6154 100.009 28.7776 100.009 27.9251C100.009 27.0727 100.231 26.2349 100.653 25.4936C101.077 24.7802 101.688 24.1962 102.421 23.8049C103.195 23.3923 104.061 23.1824 104.938 23.1948C105.645 23.1866 106.346 23.3206 107 23.5887C107.607 23.8416 108.147 24.233 108.577 24.7317L107.471 25.7614C107.163 25.4157 106.784 25.1406 106.359 24.9549C105.935 24.7692 105.476 24.6772 105.013 24.6853C104.424 24.6789 103.844 24.8243 103.327 25.1075C102.837 25.3736 102.431 25.7713 102.155 26.2557C101.878 26.77 101.734 27.3449 101.734 27.929C101.734 28.513 101.878 29.088 102.155 29.6024C102.431 30.0867 102.837 30.4844 103.327 30.7505C103.848 31.0315 104.432 31.1742 105.023 31.165C105.488 31.1725 105.948 31.0787 106.373 30.8903C106.797 30.7017 107.176 30.423 107.481 30.0734L108.587 31.1263C108.155 31.6263 107.612 32.0179 107.002 32.2693C106.348 32.5366 105.647 32.6705 104.941 32.6632C104.06 32.6745 103.191 32.4619 102.415 32.0454Z" fill="#002D75"/>
<path d="M116.482 30.3952H111.877L110.97 32.5241H109.208L113.351 23.3261H115.034L119.19 32.5241H117.402L116.482 30.3952ZM115.915 29.054L114.178 25.0355L112.457 29.054H115.915Z" fill="#002D75"/>
<path d="M127.567 23.3261V32.5241H125.884V29.9498H123.426L121.718 32.5241H119.914L121.885 29.6924C121.285 29.486 120.766 29.0925 120.406 28.57C120.05 28.0168 119.87 27.3687 119.89 26.7113C119.876 26.0784 120.04 25.4542 120.362 24.9093C120.684 24.3975 121.152 23.9932 121.705 23.7483C122.346 23.4674 123.042 23.3304 123.743 23.3467L127.567 23.3261ZM122.181 25.2568C121.822 25.6396 121.62 26.1441 121.616 26.6691C121.613 27.1943 121.808 27.7012 122.163 28.0886C122.603 28.446 123.162 28.6227 123.727 28.5828H125.884V24.7729H123.792C123.091 24.7729 122.555 24.9325 122.181 25.2568Z" fill="#002D75"/>
<path d="M132.269 32.0454C131.538 31.6546 130.928 31.0703 130.507 30.3566C130.086 29.6151 129.865 28.7774 129.865 27.9251C129.865 27.0729 130.086 26.2352 130.507 25.4936C130.933 24.7807 131.545 24.197 132.277 23.8049C133.052 23.3923 133.917 23.1824 134.795 23.1948C135.501 23.1866 136.203 23.3206 136.856 23.5887C137.464 23.8416 138.004 24.233 138.433 24.7317L137.327 25.7614C137.019 25.4157 136.641 25.1406 136.216 24.9549C135.792 24.7692 135.332 24.6772 134.87 24.6853C134.278 24.6748 133.694 24.8175 133.174 25.0998C132.684 25.3659 132.278 25.7636 132.002 26.248C131.725 26.7623 131.579 27.3373 131.579 27.9213C131.579 28.5053 131.725 29.0803 132.002 29.5946C132.278 30.079 132.684 30.4766 133.174 30.7427C133.694 31.0238 134.278 31.1666 134.87 31.1572C135.334 31.1648 135.795 31.071 136.219 30.8825C136.643 30.694 137.022 30.4152 137.327 30.0657L138.433 31.1186C138.002 31.6186 137.459 32.0102 136.848 32.2616C136.194 32.5288 135.493 32.6627 134.787 32.6555C133.909 32.6682 133.043 32.4583 132.269 32.0454Z" fill="#002D75"/>
<path d="M140.433 23.3261H142.115V29.8623L147.06 23.3312H148.653V32.5293H146.97V26.0008L142.023 32.519H140.433V23.3261Z" fill="#002D75"/>
<path d="M109.156 50.6732L109.143 44.5747L106.118 49.6203H105.345L102.32 44.6544V50.6732H100.702V41.4751H102.109L105.752 47.5583L109.36 41.4751H110.754L110.782 50.6732H109.156Z" fill="#002D75"/>
<path d="M120.664 49.2393V50.6732H113.758V41.4751H120.478V42.9064H115.466V45.3083H119.914V46.7139H115.466V49.2496L120.664 49.2393Z" fill="#002D75"/>
<path d="M131.156 41.4751V50.6732H129.448V46.7294H124.673V50.6732H122.965V41.4751H124.673V45.2723H129.435V41.4751H131.156Z" fill="#002D75"/>
<path d="M141.02 49.2393V50.6732H134.117V41.4751H140.837V42.9064H135.826V45.3083H140.273V46.7139H135.826V49.2496L141.02 49.2393Z" fill="#002D75"/>
<path d="M152.451 49.2264V52.6296H150.871V50.6731H143.81V52.6296H142.218L142.231 49.2264H142.625C143.206 49.2006 143.612 48.7715 143.842 47.9392C144.118 46.774 144.261 45.5814 144.27 44.384L144.375 41.4673H151.121V49.2186L152.451 49.2264ZM145.493 47.5247C145.344 48.3176 145.106 48.8848 144.782 49.2264H149.451V42.9192H145.843L145.78 44.5488C145.751 45.5466 145.651 46.5411 145.481 47.5247H145.493Z" fill="#002D75"/>
<path d="M162.497 46.7963H160.921V50.6732H159.243V46.7963H157.671L155.352 50.6732H153.378L156.272 45.8772L153.574 41.4751H155.378L157.627 45.3238H159.243V41.4751H160.915V45.3238H162.505L164.768 41.4751H166.571L163.889 45.8901L166.769 50.6732H164.796L162.497 46.7963Z" fill="#002D75"/>
<path d="M176.832 50.6732V44.5747L173.807 49.6203H173.034L170.008 44.6544V50.6732H168.39V41.4751H169.808L173.451 47.5583L177.058 41.4751H178.452L178.478 50.6732H176.832Z" fill="#002D75"/>
<path d="M188.339 49.2393V50.6732H181.436V41.4751H188.156V42.9064H183.144V45.3083H187.587V46.7139H183.144V49.2496L188.339 49.2393Z" fill="#002D75"/>
<path d="M198.822 41.4751V50.6732H197.121V46.7294H192.351V50.6732H190.643V41.4751H192.351V45.2723H197.121V41.4751H198.822Z" fill="#002D75"/>
<path d="M208.475 42.9193H205.423V50.6732H203.728V42.9193H200.69V41.4751H208.475V42.9193Z" fill="#002D75"/>
<path d="M106.801 66.6907H102.199L101.292 68.8197H99.5293L103.67 59.6242H105.355L109.512 68.8197H107.723L106.801 66.6907ZM106.237 65.3521L104.5 61.3309L102.776 65.3521H106.237Z" fill="#002D75"/>
<path d="M114.704 64.9453H112.995V68.8068H111.316V59.6242H112.998V63.4728H114.76L117.404 59.6242H119.208L116.065 64.0778L119.326 68.8197H117.394L114.704 64.9453Z" fill="#002D75"/>
<path d="M126.843 66.6907H122.241L121.333 68.8197H119.561L123.704 59.6242H125.387L129.543 68.8197H127.755L126.843 66.6907ZM126.279 65.3521L124.541 61.3309L122.821 65.3521H126.279Z" fill="#002D75"/>
<path d="M140.549 67.3755V70.7788H138.969V68.8197H131.906V70.7788H130.316L130.33 67.3755H130.723C131.304 67.3497 131.709 66.9207 131.939 66.0883C132.216 64.924 132.359 63.7323 132.367 62.5357L132.473 59.619H139.219V67.3704L140.549 67.3755ZM133.579 65.6739C133.429 66.4668 133.192 67.0339 132.868 67.3755H137.536V61.0684H133.929L133.865 62.6979C133.841 63.6955 133.745 64.6899 133.579 65.6739Z" fill="#002D75"/>
<path d="M149.451 67.3884V68.8197H142.546V59.6242H149.265V61.0555H144.256V63.4471H148.701V64.8526H144.256V67.3884H149.451Z" fill="#002D75"/>
<path d="M160.209 68.8197V62.7237L157.181 67.7693H156.408L153.383 62.8138V68.83H151.77V59.6242H153.177L156.82 65.7074L160.428 59.6242H161.82L161.845 68.8197H160.209Z" fill="#002D75"/>
<path d="M164.824 59.6242H166.509V66.1604L171.454 59.6319H173.044V68.8275H171.353V62.299L166.408 68.8146H164.816L164.824 59.6242Z" fill="#002D75"/>
<path d="M183.052 59.6242V68.8197H181.369V66.2583H178.911L177.2 68.8197H175.396L177.37 65.988C176.769 65.7816 176.25 65.3883 175.888 64.8655C175.532 64.3113 175.353 63.6625 175.373 63.0043C175.357 62.3709 175.521 61.7459 175.847 61.2023C176.168 60.6898 176.634 60.2845 177.187 60.0387C177.83 59.759 178.525 59.6227 179.225 59.6397L183.052 59.6242ZM177.667 61.5549C177.312 61.9379 177.114 62.4393 177.11 62.9608C177.107 63.4824 177.299 63.9864 177.648 64.3738C178.088 64.7315 178.647 64.9099 179.213 64.8733H181.369V61.0684H179.279C178.701 61.0292 178.127 61.2022 177.667 61.5549Z" fill="#002D75"/>
<path d="M187.755 68.3407C187.022 67.9506 186.413 67.3663 185.992 66.652C185.573 65.9106 185.352 65.0735 185.352 64.2218C185.352 63.3701 185.573 62.5329 185.992 61.7916C186.415 61.0776 187.026 60.4934 187.76 60.1028C188.535 59.6899 189.402 59.48 190.28 59.4927C190.987 59.4844 191.687 59.6184 192.341 59.8866C192.949 60.1389 193.489 60.5304 193.918 61.0296L192.815 62.0594C192.507 61.7134 192.127 61.438 191.703 61.2519C191.278 61.0657 190.818 60.9732 190.354 60.9807C189.763 60.9714 189.179 61.1141 188.659 61.3952C188.168 61.6608 187.763 62.0597 187.489 62.5458C187.21 63.0595 187.063 63.6347 187.063 64.2192C187.063 64.8037 187.21 65.3789 187.489 65.8925C187.763 66.3787 188.168 66.7776 188.659 67.0433C189.179 67.3243 189.763 67.467 190.354 67.4577C190.819 67.4644 191.28 67.3704 191.705 67.1819C192.13 66.9934 192.508 66.7151 192.815 66.3662L193.918 67.4165C193.488 67.9176 192.945 68.3095 192.334 68.5595C191.68 68.8269 190.979 68.9608 190.272 68.9534C189.394 68.9649 188.529 68.7541 187.755 68.3407Z" fill="#002D75"/>
<path d="M202.707 63.4805C203.3 63.9748 203.596 64.7085 203.596 65.6816C203.596 66.6958 203.271 67.4725 202.623 68.0114C201.973 68.5502 201.061 68.8197 199.885 68.8197H195.928V59.6242H197.611V62.7365H200.164C201.267 62.7365 202.117 62.9837 202.707 63.4805ZM201.347 67.046C201.531 66.8775 201.676 66.6696 201.769 66.4379C201.862 66.2062 201.902 65.9565 201.886 65.7074C201.886 64.5952 201.193 64.0392 199.808 64.0392H197.611V67.5068H199.808C200.36 67.5411 200.905 67.3778 201.347 67.046ZM204.923 59.6242H206.609V68.8197H204.923V59.6242Z" fill="#002D75"/>
<path d="M75.5708 37.7629L65.5988 61.681C65.5256 61.8522 65.4105 62.0023 65.2642 62.1174C65.1177 62.2325 64.9447 62.309 64.7609 62.3398C64.5771 62.3705 64.3885 62.3546 64.2126 62.2935C64.0366 62.2323 63.8788 62.1279 63.7538 61.9899L41.7587 4.04424C41.613 3.65099 41.4173 3.27809 41.1764 2.9347C40.911 2.31687 39.6947 0.113237 35.8167 -3.35081e-05C31.4234 -0.123602 29.9985 3.10204 29.9985 3.10204L4.94477 63.03C4.67184 63.6822 4.56441 64.3917 4.63203 65.0953C4.69964 65.799 4.94021 66.4751 5.33235 67.0636C5.7245 67.652 6.25607 68.1345 6.87983 68.4683C7.50359 68.802 8.20022 68.9767 8.90776 68.9767C9.75711 68.9792 10.5882 68.7301 11.2959 68.2609C12.0036 67.7917 12.5561 67.1235 12.8837 66.3406L37.6205 7.29563C37.6929 7.12984 37.8052 6.9844 37.9471 6.87208C38.089 6.75975 38.2565 6.68398 38.4346 6.65144C38.6127 6.6189 38.7961 6.63058 38.9687 6.68544C39.1413 6.74031 39.2976 6.83669 39.4242 6.96611L61.963 65.9183C61.9949 65.9975 62.031 66.0748 62.0712 66.1501C62.0944 66.1938 62.1151 66.2376 62.1382 66.2787C62.5711 67.0948 63.9033 68.8737 67.3896 68.9741C71.7829 69.1002 73.2053 65.8849 73.2053 65.8849L79.9048 49.7027L75.5708 37.7629Z" fill="url(#paint0_linear_220_5)"/>
<path d="M75.3467 38.2881L65.5551 61.6681C65.4821 61.8399 65.367 61.9904 65.2203 62.1059C65.0737 62.2214 64.9003 62.2981 64.7161 62.3289C64.532 62.3597 64.343 62.3436 64.1667 62.2821C63.9904 62.2206 63.8325 62.1157 63.7076 61.9771L54.7147 38.2134L52.9934 42.4765L61.9219 65.9029C61.9528 65.9827 61.9914 66.06 62.0301 66.1372L62.0971 66.2685C62.5299 67.0845 63.8648 68.866 67.3562 68.9664C71.7573 69.0925 73.1822 65.8617 73.1822 65.8617L79.6937 50.2304L75.3467 38.2881Z" fill="#0F6461"/>
<path d="M66.9955 13.4819C66.9697 13.4123 66.9362 13.348 66.9054 13.2836C66.8873 13.2476 66.8693 13.2089 66.8486 13.1755C66.5266 12.5654 65.6015 11.3168 63.3468 10.9873C63.0431 10.9413 62.7367 10.9138 62.4296 10.9049C58.7319 10.7994 57.5337 13.5153 57.5337 13.5153L36.7806 63.0712C36.6961 63.1703 36.5918 63.2505 36.4743 63.3067C36.3568 63.3629 36.2289 63.3938 36.0986 63.3974C35.9684 63.4011 35.8389 63.3773 35.7185 63.3278C35.5981 63.2782 35.4894 63.204 35.3995 63.1098L25.3322 36.5556L23.866 40.0722L33.4309 65.5581C33.555 65.8884 33.7194 66.2023 33.9205 66.4925C34.1472 67.0074 35.1702 68.866 38.4375 68.9587C42.1377 69.0642 43.3333 66.3509 43.3333 66.3509L43.524 65.8927H43.5806L63.3494 18.4503L63.9369 17.0447C63.9993 16.9022 64.0963 16.7776 64.2191 16.682C64.3419 16.5864 64.4866 16.523 64.6401 16.4974C64.7936 16.4718 64.9512 16.485 65.0983 16.5356C65.2455 16.5862 65.3777 16.6728 65.483 16.7873L85.0093 68.2199C85.1067 68.4744 85.2787 68.6932 85.5037 68.8473C85.7278 69.0013 85.9947 69.0834 86.2667 69.0823C86.4824 69.0809 86.6939 69.0277 86.8836 68.9271C87.0741 68.8267 87.2369 68.6818 87.3587 68.505C87.4812 68.3282 87.5584 68.1245 87.5853 67.9113C87.6121 67.6981 87.587 67.4816 87.5114 67.2802L66.9955 13.4819Z" fill="url(#paint1_linear_220_5)"/>
<path d="M4.26967 79.9999C6.62773 79.9999 8.53937 78.0901 8.53937 75.7342C8.53937 73.3784 6.62773 71.4685 4.26967 71.4685C1.91159 71.4685 0 73.3784 0 75.7342C0 78.0901 1.91159 79.9999 4.26967 79.9999Z" fill="#4ABABA"/>
</g>
</g>
<defs>
<linearGradient id="paint0_linear_220_5" x1="4.60721" y1="34.4883" x2="79.9126" y2="34.4883" gradientUnits="userSpaceOnUse">
<stop stop-color="#4ABABA"/>
<stop offset="0.25" stop-color="#48B7B7"/>
<stop offset="0.45" stop-color="#41ADAD"/>
<stop offset="0.64" stop-color="#369D9C"/>
<stop offset="0.81" stop-color="#268684"/>
<stop offset="0.98" stop-color="#126865"/>
<stop offset="1" stop-color="#0F6461"/>
</linearGradient>
<linearGradient id="paint1_linear_220_5" x1="87.6021" y1="39.9975" x2="23.866" y2="39.9975" gradientUnits="userSpaceOnUse">
<stop stop-color="#0F6461"/>
<stop offset="0.03" stop-color="#18726F"/>
<stop offset="0.09" stop-color="#2A8C8A"/>
<stop offset="0.15" stop-color="#38A0A0"/>
<stop offset="0.22" stop-color="#42AFAE"/>
<stop offset="0.31" stop-color="#48B7B7"/>
<stop offset="0.44" stop-color="#4ABABA"/>
<stop offset="0.56" stop-color="#47B6B6"/>
<stop offset="0.68" stop-color="#3FAAA9"/>
<stop offset="0.8" stop-color="#319695"/>
<stop offset="0.92" stop-color="#1E7A78"/>
<stop offset="1" stop-color="#0F6461"/>
</linearGradient>
<clipPath id="clip0_220_5">
<rect width="209" height="80" fill="white"/>
</clipPath>
</defs>
</svg>
