<svg width="297" height="359" viewBox="0 0 297 359" fill="none" xmlns="http://www.w3.org/2000/svg">
<path fill-rule="evenodd" clip-rule="evenodd" d="M288.662 302.863C323.868 351.935 373.812 368.535 431.306 353.84C494.895 337.694 523.188 285.719 576.315 283.633C597.148 285.084 598.512 278.916 585.958 267.033C555.937 242.452 513.363 247.078 488.527 273.383C495.259 247.259 489.437 223.948 476.701 206.35C465.511 190.749 447.499 178.413 428.577 174.603C405.834 170.158 388.913 179.138 369.536 170.975C351.251 163.264 339.606 144.942 334.33 128.977C332.238 122.446 328.872 123.263 325.415 126.075C316.682 135.236 314.498 147.391 315.408 157.822C317.045 176.598 329.145 195.738 351.979 203.72C332.966 232.565 346.247 272.476 383.637 276.558C396.1 276.558 400.467 273.111 390.096 264.04C378.906 250.888 381.817 231.204 397.374 223.131C414.931 213.97 437.492 220.41 444.224 239.821C451.138 259.686 443.496 289.257 423.028 305.403C402.923 321.276 375.904 318.283 353.616 307.761C331.419 297.33 312.588 260.593 298.76 233.018C295.758 227.032 292.938 221.498 290.482 216.691C262.008 162.811 227.256 93.6014 218.432 53.3274C217.34 48.52 216.613 44.0753 216.431 40.1749C215.43 26.1153 217.34 13.5977 222.708 3.2571C234.716 -19.6918 265.101 -31.393 289.026 -20.7803C302.763 -14.6122 313.225 -2.27603 315.499 12.1464C316.682 19.9472 314.953 27.5666 311.223 33.5533C299.124 52.9646 273.652 45.8895 264.009 29.8343C262.008 26.6595 259.278 26.841 257.277 28.8365C246.451 39.9028 248.726 59.9491 255.276 71.1967C271.287 98.5903 316.5 107.298 343.882 72.1038C359.529 118.274 408.563 137.957 448.045 113.194C461.964 102.944 461.327 96.6855 440.585 95.5063C398.192 88.7939 387.822 72.6481 370.628 24.8454C356.618 -13.9772 333.42 -55.7025 290.937 -67.7666C257.186 -77.3815 219.888 -65.4989 194.506 -32.8443C168.125 1.08014 168.943 52.3297 187.229 101.312C138.559 80.721 81.3376 110.564 86.523 173.242C89.0702 187.483 94.7104 186.576 97.9854 182.676C135.102 138.501 187.411 135.508 224.254 172.97C247.452 196.554 263.645 233.2 255.276 265.31C248.817 290.254 225.437 312.841 199.055 314.745C178.586 316.197 159.937 305.493 150.476 291.343C126.551 255.332 178.495 216.419 198.054 256.33C203.149 266.671 208.334 261.319 212.337 254.153C228.712 222.768 200.875 181.678 150.476 192.563C120.001 199.094 93.1639 229.299 100.351 281.365C75.1515 259.414 36.1246 256.784 8.01432 279.732C-4.53979 291.615 -3.08424 297.783 17.6573 296.332C74.5147 298.69 109.721 357.741 173.583 358.648C199.419 359.01 226.62 353.568 251.546 335.971C267.102 324.905 275.107 314.201 286.843 299.96C287.935 301.774 288.662 302.863 288.662 302.863Z" fill="white" fill-opacity="0.4"/>
</svg>
